<svg width="7481" height="3354" viewBox="0 0 7481 3354" fill="none" xmlns="http://www.w3.org/2000/svg">
<rect width="7481" height="3354" fill="white"/>
<circle cx="1661.46" cy="1614.46" r="1026.01" fill="#003595" stroke="white" stroke-width="51.0681"/>
<path d="M1086.02 1281.76L1663.03 966.453L2240.04 1281.76V1950.2L1663.03 2265.51L1086.02 1950.2V1281.76Z" fill="#005BFF"/>
<path d="M918.91 1188.72L1658.3 755.18L2407.15 1188.72M918.91 1188.72L1658.3 1601.77M918.91 1188.72V2046.35L1658.3 2475.16M2407.15 1188.72L1658.3 1601.77M2407.15 1188.72V2046.35L1658.3 2475.16M1658.3 1601.77V2475.16" stroke="white" stroke-width="23.2128"/>
<mask id="mask0_9358_18000" style="mask-type:alpha" maskUnits="userSpaceOnUse" x="609" y="562" width="2104" height="2104">
<circle cx="1661.46" cy="1614.46" r="1051.54" fill="#D9D9D9"/>
</mask>
<g mask="url(#mask0_9358_18000)">
<line y1="-11.6064" x2="214.213" y2="-11.6064" transform="matrix(0.866906 -0.498471 -0.498471 -0.866906 2374.09 1194.32)" stroke="white" stroke-width="23.2128"/>
<line x1="970.898" y1="1218.3" x2="785.196" y2="1111.53" stroke="white" stroke-width="23.2128"/>
<path d="M1456.88 1018.48C1437.13 1012.67 1420.47 1006.09 1420.09 1002.6C1420.09 999.502 1422.02 996.017 1425.12 994.469C1428.22 992.92 1450.68 997.569 1475.07 1004.93C1511.48 1015.77 1522.32 1021.97 1540.13 1039.79C1555.63 1055.28 1565.31 1071.93 1576.15 1100.59C1589.71 1137.38 1591.65 1140.09 1600.94 1136.99C1606.75 1135.05 1634.63 1133.51 1662.51 1133.51C1690.39 1133.51 1718.28 1135.06 1723.7 1136.61C1732.99 1139.71 1735.7 1135.45 1753.12 1093.24C1768.22 1058.01 1776.35 1043.68 1789.91 1033.22C1799.59 1025.87 1826.31 1013.09 1849.54 1005.35C1872 997.605 1894.85 992.573 1899.88 993.735C1904.53 995.284 1908.01 998.77 1907.63 1001.48C1906.85 1004.58 1885.94 1013.1 1860.77 1020.45C1835.6 1028.58 1808.5 1040.97 1800.75 1047.94C1793.01 1054.91 1779.84 1077.37 1771.32 1097.51C1762.42 1118.03 1757 1135.84 1759.32 1138.16C1761.65 1140.49 1765.91 1139.33 1769 1136.23C1772.1 1133.13 1784.11 1131.2 1796.11 1132.36C1810.31 1133.65 1822.19 1139.07 1831.74 1148.63C1842.58 1158.7 1846.84 1169.15 1847.23 1183.48C1848.01 1195.1 1846.07 1206.33 1843.75 1208.65C1840.65 1210.97 1841.43 1221.82 1844.91 1231.5C1848.79 1241.57 1850.72 1260.54 1850.34 1273.32C1849.18 1286.1 1842.98 1304.69 1836.4 1313.59C1829.82 1323.27 1813.56 1339.54 1800.78 1349.99C1788 1360.45 1772.9 1371.67 1767.09 1374.38C1757.41 1379.42 1758.57 1381.35 1841.45 1462.68L1942.13 1441.01L1967.68 1408.48C1981.62 1390.67 2003.69 1367.05 2015.7 1355.82C2036.22 1337.62 2037.77 1336.85 2033.12 1350.01C2030.03 1357.76 2010.28 1386.8 1951.43 1465.79L1910.77 1483.21C1888.31 1492.5 1869.72 1501.8 1869.72 1504.12C1869.72 1506.44 1884.82 1512.25 1935.94 1527.75L1978.92 1504.9C2002.54 1492.13 2034.3 1475.87 2049.4 1468.51C2064.5 1461.93 2077.67 1458.06 2078.83 1461.54C2079.99 1465.03 2074.18 1472.38 2066.44 1477.8C2058.31 1483.61 2027.72 1502.58 1998.67 1520.78C1970.02 1538.59 1940.2 1553.69 1932.84 1554.08C1925.87 1554.08 1919.68 1556.4 1919.68 1558.73C1919.68 1561.05 1928.59 1567.63 1939.82 1573.44C1954.92 1581.58 1978.15 1583.9 2028.88 1582.74C2066.83 1581.97 2097.81 1583.53 2098.2 1587.01C2098.2 1590.11 2086.97 1595.14 2073.81 1597.46C2060.25 1600.17 2030.05 1604.04 2006.81 1606.36C1970.03 1609.85 1956.08 1607.52 1902.64 1588.93C1865.47 1576.53 1839.13 1570.34 1837.58 1574.21C1835.26 1578.08 1839.52 1585.44 1847.65 1592.8C1855.01 1600.16 1902.26 1634.24 1952.6 1669.09C2002.95 1703.95 2084.28 1762.04 2133.07 1798.45C2181.87 1834.85 2250.41 1887.91 2286.04 1916.57C2324.77 1947.55 2403.77 2019.59 2484.33 2097.82C2575.34 2185.73 2629.17 2241.11 2652.41 2270.54L2652.46 2270.61C2671.03 2294.6 2689.59 2318.57 2693.46 2323.99C2698.11 2330.96 2697.72 2337.54 2692.69 2342.58C2688.04 2347.22 2667.52 2349.16 2641.96 2347.6C2617.95 2346.05 2563.73 2336.76 2521.52 2326.3C2479.7 2316.22 2416.19 2298.41 2380.56 2286.79C2345.32 2274.78 2301.56 2258.12 2282.97 2248.83C2264.38 2239.53 2229.14 2219 2204.36 2203.51C2175.7 2184.92 2138.14 2155.1 2043.25 2066.41L2030.08 2021.49C2023.11 1996.71 2011.88 1960.69 2005.29 1941.72C1994.45 1909.19 1987.86 1899.51 1904.6 1798.43C1855.8 1738.79 1806.61 1678.76 1795.77 1664.82C1779.89 1643.52 1775.63 1640.81 1770.98 1645.46C1767.89 1648.55 1751.62 1656.3 1705.16 1672.56L1719.1 1680.3C1726.45 1684.56 1744.66 1700.44 1758.99 1715.55C1781.45 1738.01 1788.03 1748.46 1797.33 1777.9C1803.53 1797.26 1812.05 1835.98 1815.92 1863.87C1819.8 1891.75 1824.45 1962.23 1825.62 2019.93C1827.56 2077.63 1825.63 2153.14 1821.37 2187.6C1817.89 2222.07 1810.15 2272.41 1804.73 2298.74C1799.7 2325.46 1784.99 2384.32 1772.99 2429.63C1760.99 2474.93 1740.08 2544.64 1726.53 2584.52C1712.98 2624.41 1694.4 2677.84 1684.72 2703.01C1674.65 2728.57 1665.36 2749.48 1663.81 2750.26C1661.88 2750.64 1648.71 2719.66 1634.38 2680.55C1619.66 2641.82 1595.25 2568.63 1579.76 2518.29C1563.88 2468.33 1546.45 2407.53 1540.64 2383.14C1534.44 2359.13 1524.75 2311.5 1518.56 2277.42C1511.97 2243.73 1504.61 2188.35 1501.89 2155.43C1499.18 2122.52 1498.79 2051.65 1500.72 1998.6C1503.04 1945.16 1507.29 1882.04 1510.77 1857.64C1514.26 1833.25 1522.39 1796.46 1529.74 1775.94C1539.81 1746.51 1547.55 1733.34 1565.75 1715.14C1578.92 1702.75 1596.73 1688.04 1622.67 1673.71L1591.3 1662.48C1574.27 1656.28 1557.23 1648.54 1554.13 1645.44C1549.48 1640.79 1545.61 1643.11 1534.77 1658.6C1527.02 1669.44 1483.27 1722.49 1437.97 1777.09C1392.66 1831.69 1348.52 1886.67 1339.62 1899.45C1329.94 1913 1318.32 1943.21 1310.58 1974.96C1303.22 2004 1294.71 2033.43 1291.61 2041.18C1288.13 2048.54 1276.9 2066.74 1265.67 2081.06C1254.44 2096.94 1228.5 2122.11 1203.33 2142.63C1180.09 2161.99 1136.34 2193.35 1106.52 2212.33C1076.32 2230.91 1031.79 2254.53 1007.78 2264.59C983.383 2274.27 931.106 2291.7 891.221 2302.92C851.723 2314.54 794.8 2328.86 764.982 2335.44C735.165 2342.02 694.118 2347.44 674.368 2347.82C654.619 2348.21 635.644 2346.27 633.32 2343.17C630.996 2340.85 631.383 2332.72 634.48 2324.97C637.577 2317.23 658.099 2289.74 679.782 2263.41C705.338 2231.65 761.483 2173.96 844.734 2093.81C914.432 2026.43 999.619 1948.99 1035.24 1920.34C1070.87 1891.68 1145.6 1833.99 1201.75 1792.56C1257.89 1750.36 1344.63 1688.4 1394.2 1653.56C1443.76 1619.48 1487.13 1588.51 1490.23 1585.41C1493.32 1582.31 1493.32 1576.89 1490.23 1573.79C1486.74 1570.31 1461.18 1576.5 1424.4 1589.28C1369.41 1608.63 1360.12 1610.18 1314.81 1605.14C1287.7 1602.82 1257.11 1598.56 1247.04 1595.46C1231.55 1591.58 1229.61 1590.42 1234.65 1585.39C1237.74 1582.29 1268.72 1580.74 1303.19 1581.91C1349.27 1583.85 1370.57 1581.91 1385.28 1573.4C1396.51 1567.59 1405.42 1561.01 1405.42 1558.68C1405.42 1556.36 1399.22 1554.03 1392.25 1554.03C1384.89 1553.65 1355.46 1538.93 1326.42 1520.73C1297.37 1502.52 1266.39 1483.16 1257.48 1477.35C1244.32 1468.83 1242.38 1466.12 1248.96 1463.41C1253.22 1461.47 1287.3 1475.41 1393.41 1527.31L1427.49 1516.47C1446.07 1511.05 1460.02 1504.86 1458.47 1503.31C1456.53 1501.37 1437.17 1492.08 1415.09 1482.4C1377.53 1465.74 1372.88 1462.64 1351.19 1433.98C1338.41 1417.33 1318.27 1390.22 1307.43 1373.96C1296.59 1357.69 1288.45 1342.59 1289.61 1339.88C1290.39 1337.56 1304.33 1349.17 1320.21 1365.83C1336.86 1382.48 1357.77 1406.49 1366.68 1418.5C1382.56 1439.8 1385.27 1440.96 1484.8 1463.81L1512.29 1433.22C1527.39 1416.57 1548.3 1397.99 1577.34 1382.11L1554.88 1371.27C1542.49 1365.85 1522.74 1350.74 1510.34 1338.35C1496.01 1324.02 1485.56 1308.14 1480.52 1293.04C1476.26 1280.26 1473.94 1261.67 1475.87 1251.22C1477.03 1240.76 1480.52 1228.76 1483.61 1224.11C1485.94 1219.46 1485.55 1212.88 1482.45 1209.78C1479.35 1206.68 1477.8 1194.29 1478.58 1182.67C1480.12 1167.96 1485.16 1156.73 1495.22 1146.66C1507.23 1135.43 1515.36 1132.72 1569.57 1134.28L1559.89 1110.65C1555.24 1097.49 1546.33 1078.51 1540.52 1068.06C1533.55 1054.11 1525.81 1046.37 1511.87 1038.62C1501.8 1033.2 1477.01 1023.9 1456.88 1018.48Z" fill="white"/>
</g>
<path d="M4731.31 777.229H4655.01C4655.01 777.229 4655.11 1096.59 4655.18 1244.15C4655.18 1261.59 4654.06 1278.86 4649.9 1295.86C4644.32 1318.78 4631.78 1336.76 4609.23 1344.7C4554.53 1363.95 4499.25 1363.95 4444.51 1344.8C4421.96 1336.94 4409.32 1318.95 4403.33 1296.23C4398.46 1277.77 4397.5 1258.87 4397.5 1239.82C4397.54 1096.46 4397.81 777.229 4397.81 777.229H4321.27C4321.27 777.229 4321.31 1093.29 4321.2 1236.76C4321.2 1253.35 4320.73 1269.94 4317.87 1286.35C4311.91 1320.65 4292.12 1342.62 4258.26 1350.73C4214.15 1361.29 4169.7 1361.12 4125.59 1350.73C4095.34 1343.61 4075.41 1324.98 4068.23 1294.19C4066.42 1286.52 4065.5 1278.62 4064.89 1270.75C4064.07 1260.53 4063.66 1250.25 4063.66 1239.99C4063.59 1089.85 4063.8 777.195 4063.8 777.195H3986.75C3986.75 777.195 3986.95 1096.87 3987.12 1242.17C3987.12 1259.14 3987.7 1276.2 3989.47 1293.03C3995.33 1348.41 4022.62 1387.31 4077.25 1404.75C4118.13 1417.8 4160.3 1420.66 4202.53 1419.26C4264.22 1417.22 4320.69 1401.82 4359.46 1346.23C4382.79 1380.5 4414.19 1400.53 4452.24 1410.17C4512.6 1425.46 4573.09 1422.19 4632.77 1407.34C4672.42 1397.46 4704.03 1375.39 4719.42 1335.27C4729.03 1310.2 4731.28 1283.83 4731.31 1257.26C4731.41 1130.04 4731.31 777.195 4731.31 777.195V777.229Z" fill="#003595"/>
<path d="M5347.79 941.183C5347.79 922.142 5346.33 903.34 5343.16 884.606C5336.69 846.184 5316.73 817.64 5281.78 799.86C5249.53 783.442 5214.71 777.175 5179.15 773.905C5110.42 767.569 5041.92 768.08 4973.97 781.909C4897.73 797.407 4860.54 838.384 4858.46 915.67C4856.35 995.001 4857.47 1153.87 4857.2 1153.87C4857.2 1229.52 4857.3 1305.2 4857.03 1380.85H4857V1413.35H4934.25V1384.26C4933.84 1318.42 4933.74 1189.56 4933.74 1189.56V1177.4H5271.53L5271.6 1191.03C5271.6 1191.03 5271.39 1317.6 5271.19 1380.89V1413.38H5348C5348 1413.38 5347.69 1088.94 5347.79 941.285V941.183ZM5271.56 1111.12H4933.81V1100.12C4933.81 1100.12 4934.21 987.2 4934.35 930.76C4934.35 919.69 4935.51 908.756 4938.1 897.924C4946.85 861.137 4974.2 846.014 5007.72 839.031C5064.77 827.177 5122.3 828.812 5179.8 835.42C5190.7 836.681 5201.4 840.019 5212.02 843.016C5250.14 853.78 5267.92 880.621 5270.27 918.736C5271.36 936.039 5271.29 953.445 5271.33 970.817C5271.46 1013.84 5271.6 1099.91 5271.6 1099.91V1111.12H5271.56Z" fill="#003595"/>
<path d="M5859.1 1085.23C5802.46 1070.41 5744.04 1065.23 5686.61 1054.71C5658.27 1049.53 5629.63 1045.85 5601.42 1040.06C5563.38 1032.23 5544.75 1008.62 5544.3 969.722C5544.13 955.518 5544.13 941.281 5544.68 927.043C5546.41 878.777 5564.71 852.004 5611.44 841.888C5683.21 826.322 5755.76 825.027 5827.19 845.737C5860.06 855.274 5876.17 879.492 5880.12 912.839C5882.33 931.607 5881.89 964.817 5881.89 964.817H5958.22V945.743C5958.05 933.651 5958.39 922.308 5957.34 910.284C5951.1 839.333 5922.63 805.271 5854.16 785.924C5808.04 772.878 5760.6 772.333 5713.05 771.039C5664.27 772.299 5615.36 773.389 5567.7 787.082C5511.74 803.194 5476.96 837.324 5470.46 897.239C5467.6 923.705 5468.35 950.103 5468.28 976.569C5468.17 1036.14 5501.01 1081.07 5557.79 1099.29C5599.38 1112.65 5643.01 1115.58 5685.69 1123.24C5726.88 1130.63 5768.43 1135.84 5809.54 1143.54C5844.39 1150.05 5872.46 1166.74 5879.54 1204.82C5884.62 1232.14 5883.15 1260 5878.72 1287.42C5873.92 1317.02 5856.58 1337.59 5827.87 1345.63C5753.65 1366.37 5678.71 1365.49 5604.18 1347.54C5568.79 1339.02 5550.16 1314.29 5546.04 1278.09C5544.95 1268.45 5544.54 1258.77 5544.41 1249.1H5544.47V1216.36V1198.28H5468.07V1240.69C5467.94 1263.92 5468.31 1287.11 5473.15 1310.07C5480.61 1345.7 5499.51 1372.91 5532.35 1389.91C5550.74 1399.45 5570.12 1405.82 5590.35 1409.94C5646.52 1421.35 5703.41 1422.1 5760.29 1419.27C5795.34 1417.53 5830.32 1413.65 5864.11 1402.65C5912.61 1386.88 5945.28 1357.21 5954.31 1304.79C5959.52 1274.51 5958.29 1244.16 5958.33 1213.78C5958.39 1147.49 5923.62 1102.09 5859.21 1085.23H5859.1Z" fill="#003595"/>
<path d="M3863.07 909.855C3860.41 865.064 3845.05 826.676 3803.53 803.275C3785.51 793.091 3766.16 786.312 3745.99 781.987C3693.91 770.814 3641.05 768.736 3588.08 770.61C3547.07 772.04 3506.03 774.97 3466.52 787.539C3429.83 799.188 3398.8 818.194 3382.66 855.186C3371.69 880.289 3369.51 907.164 3369.44 934.039C3369.17 1041.1 3369.3 1148.15 3369.34 1255.21C3369.34 1260.35 3369.37 1265.5 3369.75 1270.61C3372.23 1305.72 3377.58 1339.89 3403.88 1366.52C3427 1389.96 3456.4 1401.47 3487.63 1407.81C3565.43 1423.61 3643.81 1422.66 3722.19 1412.41C3744.9 1409.44 3767.01 1403.38 3788.27 1394.39C3838.61 1373.1 3860.1 1332.73 3863.1 1280.69C3866.68 1218.73 3863.54 1156.67 3864.84 1094.68C3863.54 1033.06 3866.71 971.405 3863.1 909.855H3863.07ZM3787.65 1246.93C3787.65 1252.45 3787.55 1258 3787.28 1263.52C3784.96 1310.93 3768.24 1336.38 3722.15 1347.48C3649.87 1364.89 3576.57 1365.06 3504.26 1345.54C3468.97 1336 3450.95 1310.8 3447.58 1274.93C3446.39 1262.36 3445.57 1249.73 3445.53 1237.12C3445.36 1141.54 3445.33 1046 3445.53 950.423C3445.53 937.037 3446.56 923.582 3448.12 910.298C3452.86 869.594 3478.85 848.169 3516.42 840.301C3583.28 826.335 3650.62 826.131 3717.45 840.437C3763.57 850.315 3785.85 877.088 3786.94 924.74C3788.23 981.59 3787.69 1196.42 3787.65 1246.97V1246.93Z" fill="#003595"/>
<path d="M6567.59 908.921C6563.06 863.21 6540.62 827.07 6499.13 804.316C6462.31 784.152 6422.05 778.532 6381.21 778.123C6289.14 777.203 6080.88 777.203 6080.88 777.203L6080.78 1413.24H6157.66L6157.25 1229.89C6157.25 1229.89 6300.41 1230.3 6366.39 1230.02C6395.65 1229.89 6424.67 1227.5 6453.38 1221.1C6519.06 1206.49 6562.14 1161.22 6568 1094.66C6573.42 1032.91 6573.73 970.675 6567.59 908.955V908.921ZM6489.93 1091.19C6483.87 1129.2 6459.48 1152.36 6422.9 1163.12C6404.13 1168.64 6384.85 1169.9 6365.47 1169.94C6299.9 1170.04 6157.25 1170.21 6157.25 1170.21V838.378C6157.25 838.378 6306.58 838.583 6376.1 838.583C6396.43 838.583 6416.29 841.614 6435.23 849.142C6468.85 862.562 6487.92 888.518 6491.47 923.533C6497.09 979.327 6498.79 1035.49 6489.93 1091.15V1091.19Z" fill="#003595"/>
<path d="M5154.32 2439.96V2489.07H5328.02V2504.08H5136.13V2439.05C5136.13 2394.49 5160.23 2369.94 5207.97 2355.84L5249.81 2343.11C5295.28 2329.02 5310.74 2310.37 5310.74 2272.18C5310.74 2224.43 5288 2204.43 5235.71 2204.43C5182.51 2204.43 5160.68 2226.25 5160.68 2278.09H5142.5C5142.5 2208.97 5180.69 2189.87 5235.71 2189.87C5297.55 2189.87 5328.47 2214.43 5328.47 2272.63C5328.47 2312.19 5315.29 2339.93 5254.81 2358.57L5213.89 2370.85C5164.78 2386.31 5154.32 2412.68 5154.32 2439.96ZM5494.19 2508.63C5414.16 2508.63 5392.79 2457.24 5392.79 2349.48C5392.79 2223.52 5424.61 2189.87 5494.19 2189.87C5574.21 2189.87 5595.59 2239.89 5595.59 2349.48C5595.59 2473.61 5564.21 2508.63 5494.19 2508.63ZM5494.19 2493.17C5556.48 2493.17 5577.4 2456.79 5577.4 2349.48C5577.4 2240.35 5556.48 2205.33 5494.19 2205.33C5431.89 2205.33 5410.97 2239.89 5410.97 2349.48C5410.97 2456.33 5431.89 2493.17 5494.19 2493.17ZM5680.72 2439.96V2489.07H5854.41V2504.08H5662.53V2439.05C5662.53 2394.49 5686.63 2369.94 5734.37 2355.84L5776.2 2343.11C5821.67 2329.02 5837.13 2310.37 5837.13 2272.18C5837.13 2224.43 5814.4 2204.43 5762.11 2204.43C5708.91 2204.43 5687.08 2226.25 5687.08 2278.09H5668.89C5668.89 2208.97 5707.09 2189.87 5762.11 2189.87C5823.95 2189.87 5854.87 2214.43 5854.87 2272.63C5854.87 2312.19 5841.68 2339.93 5781.21 2358.57L5740.28 2370.85C5691.17 2386.31 5680.72 2412.68 5680.72 2439.96ZM6024.67 2306.73C6096.52 2306.73 6117.43 2346.75 6117.43 2405.86C6117.43 2485.89 6076.06 2508.63 6020.13 2508.63C5938.28 2508.63 5919.18 2456.79 5919.18 2355.39C5919.18 2220.34 5961.47 2189.87 6021.04 2189.87C6077.87 2189.87 6105.16 2218.07 6105.16 2259.9H6087.88C6087.88 2223.98 6063.32 2203.97 6021.04 2203.97C5963.74 2203.97 5936.91 2243.53 5936.46 2352.21C5951.47 2323.56 5981.93 2306.73 6024.67 2306.73ZM6019.22 2493.17C6073.33 2493.17 6100.61 2467.7 6100.61 2405.86C6100.61 2345.38 6076.51 2320.83 6021.49 2320.83C5972.38 2320.83 5941.46 2349.48 5936.91 2390.86C5940.55 2465.88 5964.2 2493.17 6019.22 2493.17Z" fill="#003595"/>
<path d="M3469.48 1912.93C3394.83 1912.93 3354.92 1881 3354.92 1820.91H3384.03C3384.03 1871.14 3420.18 1888.52 3470.42 1888.52C3535.21 1888.52 3557.27 1858.94 3557.27 1819.5C3557.27 1777.72 3532.39 1758.94 3494.83 1755.18L3449.29 1750.95C3398.12 1745.79 3362.43 1717.62 3362.43 1663.16C3362.43 1600.72 3407.97 1574.9 3475.58 1574.9C3549.29 1574.9 3580.75 1605.88 3580.75 1654.24H3551.64C3551.64 1616.68 3525.35 1598.37 3475.11 1598.37C3419.24 1598.37 3392.01 1621.38 3392.01 1663.16C3392.01 1700.72 3413.61 1719.03 3454.92 1723.25L3501.87 1728.42C3552.58 1733.58 3586.85 1764.1 3586.85 1819.03C3586.85 1882.41 3542.72 1912.93 3469.48 1912.93ZM3909.35 1668.79C3971.32 1668.79 3986.82 1706.82 3986.82 1757.53V1908.23H3958.65V1758.47C3958.65 1711.99 3944.56 1690.86 3903.25 1690.86C3862.4 1690.86 3836.11 1719.03 3836.11 1761.75V1908.23H3807.94V1758.47C3807.94 1711.99 3793.39 1690.86 3752.54 1690.86C3711.7 1690.86 3684.46 1722.32 3684.46 1761.75V1908.23H3656.3V1673.49H3683.53V1709.17C3698.55 1683.35 3725.78 1668.79 3759.58 1668.79C3800.9 1668.79 3821.56 1686.63 3830.48 1713.87C3845.03 1683.35 3875.08 1668.79 3909.35 1668.79ZM4149.22 1668.79C4216.83 1668.79 4237.02 1700.25 4237.02 1745.79V1908.23H4209.78V1871.61C4194.76 1898.38 4167.06 1912.93 4128.09 1912.93C4071.28 1912.93 4048.28 1881.47 4048.28 1840.63C4048.28 1787.11 4089.13 1769.27 4136.07 1769.27H4208.85V1744.38C4208.85 1706.35 4188.66 1690.86 4147.81 1690.86C4107.44 1690.86 4085.84 1707.29 4085.84 1741.1H4059.08C4059.08 1685.7 4099.45 1668.79 4149.22 1668.79ZM4132.32 1890.86C4173.63 1890.86 4208.85 1866.92 4208.85 1817.15V1788.51H4141.24C4101.8 1788.51 4076.45 1804.95 4076.45 1840.16C4076.45 1875.37 4098.98 1890.86 4132.32 1890.86ZM4413.99 1668.79C4418.69 1668.79 4422.91 1669.26 4426.67 1669.73V1694.62C4423.38 1693.68 4417.28 1693.21 4411.17 1693.21C4369.39 1693.21 4341.22 1719.03 4341.22 1776.78V1908.23H4313.05V1673.49H4340.28V1713.4C4355.77 1681 4383.94 1668.79 4413.99 1668.79ZM4588.12 1694.15H4535.07V1849.08C4535.07 1877.72 4544.46 1889.92 4569.81 1889.92C4574.98 1889.92 4577.32 1889.92 4586.71 1888.99V1911.52C4577.79 1912.46 4569.81 1912.93 4563.71 1912.93C4527.09 1912.93 4507.37 1899.78 4507.37 1850.96V1694.15H4464.64V1673.49H4507.37V1611.52H4535.07V1673.49H4588.12V1694.15ZM4897.01 1912.93C4803.11 1912.93 4765.08 1858 4765.08 1743.44C4765.08 1628.42 4803.58 1574.9 4898.42 1574.9C4972.6 1574.9 5019.08 1606.35 5019.08 1673.49H4990.91C4990.91 1621.38 4956.17 1598.84 4898.89 1598.84C4821.89 1598.84 4794.66 1641.56 4794.66 1744.38C4794.66 1846.73 4821.89 1888.05 4897.01 1888.05C4953.82 1888.05 4989.5 1865.98 4990.91 1814.81H5019.08C5018.14 1880.53 4970.25 1912.93 4897.01 1912.93ZM5179.46 1912.93C5100.11 1912.93 5071.47 1868.8 5071.47 1790.86C5071.47 1705.41 5106.22 1668.79 5179.46 1668.79C5259.27 1668.79 5287.91 1712.46 5287.91 1790.86C5287.91 1875.84 5253.17 1912.93 5179.46 1912.93ZM5179.46 1889.92C5236.73 1889.92 5259.74 1857.53 5259.74 1790.86C5259.74 1723.72 5236.73 1691.8 5179.46 1691.8C5122.65 1691.8 5099.64 1723.72 5099.64 1790.86C5099.64 1857.53 5122.65 1889.92 5179.46 1889.92ZM5464.44 1668.79C5526.42 1668.79 5542.38 1704.94 5542.38 1756.12V1908.23H5514.21V1757.06C5514.21 1712.93 5499.66 1690.86 5456.46 1690.86C5411.86 1690.86 5381.34 1719.03 5381.34 1761.75V1908.23H5353.17V1673.49H5380.41V1710.58C5396.37 1683.82 5426.42 1668.79 5464.44 1668.79ZM5719.48 1694.15H5666.43V1849.08C5666.43 1877.72 5675.82 1889.92 5701.17 1889.92C5706.34 1889.92 5708.69 1889.92 5718.08 1888.99V1911.52C5709.16 1912.46 5701.17 1912.93 5695.07 1912.93C5658.45 1912.93 5638.73 1899.78 5638.73 1850.96V1694.15H5596.01V1673.49H5638.73V1611.52H5666.43V1673.49H5719.48V1694.15ZM5884.38 1668.79C5889.07 1668.79 5893.3 1669.26 5897.05 1669.73V1694.62C5893.77 1693.68 5887.66 1693.21 5881.56 1693.21C5839.78 1693.21 5811.61 1719.03 5811.61 1776.78V1908.23H5783.44V1673.49H5810.67V1713.4C5826.16 1681 5854.33 1668.79 5884.38 1668.79ZM6037.95 1668.79C6105.56 1668.79 6125.74 1700.25 6125.74 1745.79V1908.23H6098.51V1871.61C6083.49 1898.38 6055.79 1912.93 6016.82 1912.93C5960.01 1912.93 5937.01 1881.47 5937.01 1840.63C5937.01 1787.11 5977.85 1769.27 6024.8 1769.27H6097.57V1744.38C6097.57 1706.35 6077.39 1690.86 6036.54 1690.86C5996.16 1690.86 5974.57 1707.29 5974.57 1741.1H5947.81C5947.81 1685.7 5988.18 1668.79 6037.95 1668.79ZM6021.05 1890.86C6062.36 1890.86 6097.57 1866.92 6097.57 1817.15V1788.51H6029.97C5990.53 1788.51 5965.18 1804.95 5965.18 1840.16C5965.18 1875.37 5987.71 1890.86 6021.05 1890.86ZM6293.8 1912.93C6216.8 1912.93 6188.16 1868.8 6188.16 1790.86C6188.16 1705.41 6221.97 1668.79 6293.8 1668.79C6360 1668.79 6388.64 1696.49 6389.11 1746.73H6360.94C6360 1709.64 6338.87 1691.8 6293.8 1691.8C6238.87 1691.8 6216.33 1723.72 6216.33 1790.86C6216.33 1857.53 6238.4 1889.92 6293.8 1889.92C6338.87 1889.92 6360 1872.08 6360.94 1835.93H6389.11C6388.17 1889.45 6354.83 1912.93 6293.8 1912.93ZM6554.79 1694.15H6501.74V1849.08C6501.74 1877.72 6511.13 1889.92 6536.48 1889.92C6541.65 1889.92 6543.99 1889.92 6553.38 1888.99V1911.52C6544.46 1912.46 6536.48 1912.93 6530.38 1912.93C6493.76 1912.93 6474.04 1899.78 6474.04 1850.96V1694.15H6431.32V1673.49H6474.04V1611.52H6501.74V1673.49H6554.79V1694.15Z" fill="#003595"/>
<path d="M3600.87 2185.65V2234.3H3504.47V2503.95H3444V2234.3H3347.14V2185.65H3600.87ZM3778.08 2508.49C3683.05 2508.49 3641.67 2453.47 3641.67 2344.8C3641.67 2234.3 3683.05 2181.1 3778.08 2181.1C3873.57 2181.1 3914.95 2234.3 3914.95 2344.8C3914.95 2453.47 3873.57 2508.49 3778.08 2508.49ZM3778.08 2458.47C3834.92 2458.47 3853.57 2423.92 3853.57 2344.8C3853.57 2262.95 3833.1 2230.67 3778.08 2230.67C3721.7 2230.67 3703.06 2266.13 3703.06 2344.8C3703.06 2427.1 3723.52 2458.47 3778.08 2458.47ZM4097 2185.65C4172.02 2185.65 4208.86 2215.21 4208.86 2281.14C4208.86 2356.17 4161.57 2377.99 4097 2377.99H4041.52V2503.95H3981.5V2185.65H4097ZM4096.09 2329.79C4130.65 2329.79 4151.11 2315.24 4151.11 2281.14C4151.11 2244.31 4127.46 2233.85 4096.09 2233.85H4041.52V2329.79H4096.09ZM4505.09 2194.74V2503.95H4445.53V2254.31L4374.59 2298.87V2249.31L4441.89 2194.74H4505.09ZM4678.4 2508.49C4592.92 2508.49 4564.72 2460.29 4564.72 2350.71C4564.72 2230.67 4597.46 2189.29 4678.4 2189.29C4764.34 2189.29 4792.53 2237.94 4792.53 2350.71C4792.53 2467.11 4759.79 2508.49 4678.4 2508.49ZM4678.4 2458.93C4719.78 2458.93 4732.51 2434.37 4732.51 2350.71C4732.51 2263.86 4719.78 2239.31 4678.4 2239.31C4637.48 2239.31 4624.75 2263.4 4624.75 2350.71C4624.75 2434.37 4637.48 2458.93 4678.4 2458.93Z" fill="#003595"/>
<path d="M4949.72 2285.47V2237.72H4980.64V2285.47H4949.72ZM4949.72 2465.08V2417.33H4980.64V2465.08H4949.72Z" fill="#003595"/>
</svg>
