<svg width="377" height="163" viewBox="0 0 377 163" fill="none" xmlns="http://www.w3.org/2000/svg">
<path d="M46.9323 120.463V158.588L0.15625 90.668L46.9323 120.463Z" fill="url(#paint0_linear_9316_17235)"/>
<path d="M93.3925 90.668L46.9375 158.588V120.463L93.3925 90.668Z" fill="url(#paint1_linear_9316_17235)"/>
<path d="M93.3925 81.0558L46.9375 54.4648V110.851L93.3925 81.0558Z" fill="url(#paint2_linear_9316_17235)"/>
<path d="M93.3925 81.056L46.9375 0V54.465L93.3925 81.056Z" fill="url(#paint3_linear_9316_17235)"/>
<path d="M46.9323 0V54.465L0.15625 81.056L46.9323 0Z" fill="url(#paint4_linear_9316_17235)"/>
<path d="M46.9323 54.4648V110.851L0.15625 81.0558L46.9323 54.4648Z" fill="url(#paint5_linear_9316_17235)"/>
<path d="M116.477 28.9104C116.477 26.2544 117.021 23.9014 118.109 21.8524C119.197 19.8044 120.717 18.2204 122.67 17.0994C124.622 15.9794 126.879 15.4194 129.44 15.4194C131.904 15.4194 134.105 15.9954 136.042 17.1484C137.978 18.3004 139.491 19.9174 140.579 21.9974C141.667 24.0784 142.211 26.4464 142.211 29.1034V31.1194H123.342C123.438 32.7204 124.046 34.0164 125.167 35.0084C126.287 36.0014 127.759 36.4964 129.584 36.4964C130.864 36.4964 132.048 36.2164 133.137 35.6564C134.225 35.0964 135.409 34.1284 136.69 32.7524L140.963 37.1214C139.49 38.7544 137.794 40.0264 135.874 40.9384C133.954 41.8504 131.856 42.3064 129.584 42.3064C126.991 42.3064 124.703 41.7454 122.718 40.6254C120.733 39.5054 119.197 37.9294 118.109 35.8964C117.021 33.8644 116.477 31.5354 116.477 28.9104ZM135.298 26.1254C135.17 24.7174 134.554 23.5494 133.449 22.6204C132.345 21.6924 131.008 21.2284 129.44 21.2284C127.808 21.2284 126.463 21.6764 125.407 22.5724C124.351 23.4684 123.695 24.6534 123.439 26.1254H135.298Z" fill="#0B0B0B"/>
<path d="M146.578 28.8625C146.578 26.2385 147.122 23.9095 148.21 21.8765C149.298 19.8445 150.827 18.2595 152.795 17.1235C154.763 15.9875 157.012 15.4185 159.541 15.4185C162.518 15.4185 165.078 16.2345 167.223 17.8675C169.367 19.4995 170.824 21.6925 171.592 24.4455L164.967 26.2695C164.647 24.8615 164.038 23.7485 163.142 22.9325C162.246 22.1165 161.045 21.7085 159.541 21.7085C157.621 21.7085 156.124 22.3405 155.052 23.6045C153.979 24.8695 153.444 26.6215 153.444 28.8615C153.444 31.1015 153.98 32.8545 155.052 34.1185C156.124 35.3835 157.621 36.0145 159.541 36.0145C161.045 36.0145 162.245 35.6065 163.142 34.7905C164.038 33.9745 164.646 32.8625 164.967 31.4535L171.592 33.2775C170.824 36.0305 169.367 38.2225 167.223 39.8555C165.078 41.4875 162.518 42.3045 159.541 42.3045C157.012 42.3045 154.764 41.7355 152.795 40.5995C150.826 39.4635 149.297 37.8795 148.21 35.8465C147.122 33.8145 146.578 31.4855 146.578 28.8605V28.8625Z" fill="#0B0B0B"/>
<path d="M175.719 28.8625C175.719 26.2385 176.263 23.9095 177.351 21.8765C178.439 19.8445 179.968 18.2595 181.936 17.1235C183.904 15.9875 186.153 15.4185 188.682 15.4185C191.242 15.4185 193.507 15.9875 195.475 17.1235C197.444 18.2595 198.972 19.8445 200.06 21.8765C201.148 23.9095 201.693 26.2385 201.693 28.8625C201.693 31.4865 201.148 33.8165 200.06 35.8485C198.972 37.8815 197.444 39.4655 195.475 40.6015C193.506 41.7375 191.242 42.3065 188.682 42.3065C186.153 42.3065 183.905 41.7375 181.936 40.6015C179.967 39.4655 178.438 37.8815 177.351 35.8485C176.263 33.8165 175.719 31.4875 175.719 28.8625ZM194.827 28.8625C194.827 26.6225 194.291 24.8695 193.219 23.6055C192.147 22.3415 190.634 21.7095 188.682 21.7095C186.762 21.7095 185.265 22.3415 184.193 23.6055C183.12 24.8705 182.585 26.6225 182.585 28.8625C182.585 31.1025 183.121 32.8555 184.193 34.1195C185.265 35.3845 186.762 36.0155 188.682 36.0155C190.602 36.0155 192.106 35.3755 193.195 34.0955C194.283 32.8155 194.827 31.0705 194.827 28.8625Z" fill="#0B0B0B"/>
<path d="M205.539 33.1834L211.781 31.7434C212.228 33.3444 213.037 34.5684 214.205 35.4164C215.374 36.2644 216.853 36.6884 218.646 36.6884C220.247 36.6884 221.47 36.4964 222.319 36.1124C223.167 35.7284 223.591 35.1844 223.591 34.4794C223.591 33.6804 223.159 33.0634 222.295 32.6314C221.431 32.1994 219.846 31.7594 217.541 31.3114C213.765 30.6074 211.067 29.6304 209.451 28.3824C207.835 27.1334 207.026 25.4224 207.026 23.2454C207.026 21.7084 207.474 20.3494 208.371 19.1644C209.267 17.9804 210.523 17.0604 212.14 16.4034C213.756 15.7474 215.605 15.4194 217.686 15.4194C220.535 15.4194 223.063 16.1244 225.272 17.5314C227.48 18.9404 228.968 20.8134 229.737 23.1494L223.832 25.0694C223.352 23.7894 222.575 22.7974 221.503 22.0924C220.431 21.3884 219.143 21.0354 217.639 21.0354C216.39 21.0354 215.398 21.2364 214.662 21.6364C213.925 22.0364 213.558 22.5894 213.558 23.2924C213.558 23.9334 213.966 24.4534 214.782 24.8534C215.598 25.2534 217.079 25.6454 219.223 26.0294C223.128 26.7654 225.921 27.7814 227.601 29.0774C229.282 30.3734 230.122 32.1744 230.122 34.4784C230.122 36.0474 229.649 37.4234 228.706 38.6074C227.762 39.7924 226.417 40.7044 224.673 41.3434C222.928 41.9834 220.92 42.3034 218.648 42.3034C215.191 42.3034 212.318 41.5034 210.03 39.9034C207.741 38.3024 206.245 36.0624 205.541 33.1814L205.539 33.1834Z" fill="#0B0B0B"/>
<path d="M243.561 40.5772L233.43 16.1392H240.632L246.969 32.4152H247.066L253.355 16.1392H260.557L245.769 52.3882H238.616L243.561 40.5772Z" fill="#0B0B0B"/>
<path d="M261.898 33.1834L268.14 31.7434C268.587 33.3444 269.396 34.5684 270.564 35.4164C271.733 36.2644 273.212 36.6884 275.005 36.6884C276.606 36.6884 277.829 36.4964 278.678 36.1124C279.526 35.7284 279.95 35.1844 279.95 34.4794C279.95 33.6804 279.518 33.0634 278.654 32.6314C277.79 32.1994 276.205 31.7594 273.9 31.3114C270.124 30.6074 267.426 29.6304 265.81 28.3824C264.194 27.1334 263.385 25.4224 263.385 23.2454C263.385 21.7084 263.833 20.3494 264.73 19.1644C265.626 17.9804 266.882 17.0604 268.499 16.4034C270.115 15.7474 271.964 15.4194 274.045 15.4194C276.894 15.4194 279.422 16.1244 281.631 17.5314C283.839 18.9404 285.327 20.8134 286.096 23.1494L280.191 25.0694C279.711 23.7894 278.934 22.7974 277.862 22.0924C276.79 21.3884 275.502 21.0354 273.998 21.0354C272.749 21.0354 271.757 21.2364 271.021 21.6364C270.284 22.0364 269.917 22.5894 269.917 23.2924C269.917 23.9334 270.325 24.4534 271.141 24.8534C271.957 25.2534 273.438 25.6454 275.582 26.0294C279.487 26.7654 282.28 27.7814 283.96 29.0774C285.641 30.3734 286.481 32.1744 286.481 34.4784C286.481 36.0474 286.008 37.4234 285.065 38.6074C284.121 39.7924 282.776 40.7044 281.032 41.3434C279.287 41.9834 277.279 42.3034 275.007 42.3034C271.55 42.3034 268.677 41.5034 266.389 39.9034C264.1 38.3024 262.604 36.0624 261.9 33.1814L261.898 33.1834Z" fill="#0B0B0B"/>
<path d="M302.998 22.2842V32.5112C302.998 33.3752 303.197 33.9992 303.598 34.3842C303.998 34.7682 304.662 34.9602 305.591 34.9602H311.401V41.5852H304.967C302.15 41.5852 299.973 40.9212 298.437 39.5922C296.901 38.2642 296.132 36.3682 296.132 33.9032V22.2842H289.891V16.1382H296.132V9.65723H302.998V16.1382H312.984V22.2842H302.998Z" fill="#0B0B0B"/>
<path d="M317.594 28.9104C317.594 26.2544 318.138 23.9014 319.227 21.8524C320.314 19.8044 321.835 18.2204 323.788 17.0994C325.74 15.9794 327.997 15.4194 330.558 15.4194C333.023 15.4194 335.223 15.9954 337.16 17.1484C339.097 18.3014 340.609 19.9174 341.697 21.9974C342.785 24.0784 343.33 26.4464 343.33 29.1034V31.1194H324.462C324.558 32.7204 325.165 34.0164 326.286 35.0084C327.406 36.0014 328.879 36.4964 330.703 36.4964C331.982 36.4964 333.167 36.2164 334.256 35.6564C335.344 35.0964 336.528 34.1284 337.809 32.7524L342.082 37.1214C340.609 38.7544 338.913 40.0264 336.992 40.9384C335.072 41.8504 332.975 42.3064 330.703 42.3064C328.11 42.3064 325.821 41.7454 323.837 40.6254C321.853 39.5054 320.316 37.9294 319.229 35.8964C318.14 33.8644 317.596 31.5354 317.596 28.9104H317.594ZM336.414 26.1254C336.286 24.7174 335.67 23.5494 334.566 22.6204C333.462 21.6924 332.125 21.2284 330.556 21.2284C328.924 21.2284 327.579 21.6764 326.524 22.5724C325.467 23.4684 324.811 24.6534 324.555 26.1254H336.413H336.414Z" fill="#0B0B0B"/>
<path d="M347.938 16.1392H353.987V18.3472H354.083C354.627 17.4832 355.323 16.8192 356.172 16.3542C357.02 15.8912 357.955 15.6582 358.98 15.6582C360.997 15.6582 362.614 16.6022 363.831 18.4912H363.927C365.207 16.6032 366.968 15.6582 369.208 15.6582C371.064 15.6582 372.568 16.3142 373.721 17.6262C374.873 18.9392 375.451 20.6512 375.451 22.7632V41.5842H369.113V23.9652C369.113 23.2292 368.92 22.6692 368.536 22.2852C368.152 21.9012 367.608 21.7092 366.904 21.7092C366.232 21.7092 365.696 21.9252 365.296 22.3572C364.896 22.7892 364.695 23.3742 364.695 24.1092V41.5862H358.694V23.9652C358.694 23.2612 358.509 22.7102 358.142 22.3092C357.774 21.9092 357.253 21.7092 356.581 21.7092C355.877 21.7092 355.316 21.9252 354.9 22.3572C354.484 22.7892 354.276 23.3742 354.276 24.1092V41.5862H347.939V16.1392H347.938Z" fill="#0B0B0B"/>
<path d="M117.149 85.1834L123.39 83.7434C123.838 85.3454 124.646 86.5684 125.815 87.4164C126.983 88.2654 128.463 88.6884 130.256 88.6884C131.856 88.6884 133.081 88.4974 133.929 88.1124C134.777 87.7284 135.201 87.1844 135.201 86.4804C135.201 85.6804 134.769 85.0634 133.905 84.6314C133.041 84.1984 131.457 83.7594 129.152 83.3114C125.375 82.6074 122.678 81.6304 121.062 80.3824C119.446 79.1344 118.638 77.4224 118.638 75.2454C118.638 73.7084 119.086 72.3494 119.982 71.1644C120.878 69.9804 122.134 69.0604 123.751 68.4034C125.367 67.7474 127.215 67.4194 129.296 67.4194C132.144 67.4194 134.673 68.1244 136.882 69.5314C139.09 70.9404 140.579 72.8134 141.347 75.1494L135.442 77.0704C134.962 75.7904 134.185 74.7974 133.113 74.0934C132.04 73.3894 130.752 73.0364 129.248 73.0364C128 73.0364 127.007 73.2374 126.271 73.6374C125.534 74.0374 125.167 74.5904 125.167 75.2934C125.167 75.9344 125.575 76.4544 126.391 76.8534C127.207 77.2534 128.687 77.6454 130.832 78.0304C134.737 78.7664 137.53 79.7824 139.21 81.0794C140.89 82.3754 141.731 84.1764 141.731 86.4804C141.731 88.0484 141.258 89.4254 140.314 90.6094C139.37 91.7944 138.025 92.7064 136.281 93.3454C134.536 93.9854 132.528 94.3054 130.255 94.3054C126.798 94.3054 123.925 93.5064 121.637 91.9054C119.348 90.3054 117.853 88.0644 117.149 85.1834Z" fill="#0B0B0B"/>
<path d="M146.102 84.9432V68.1392H152.968V83.3592C152.968 86.4642 154.504 88.0162 157.577 88.0162C158.953 88.0162 160.05 87.5922 160.866 86.7442C161.682 85.8962 162.09 84.7682 162.09 83.3592V68.1392H168.956V93.5852H162.378V91.3282H162.282C161.577 92.2242 160.609 92.9452 159.377 93.4892C158.144 94.0332 156.856 94.3042 155.512 94.3042C152.503 94.3042 150.183 93.4812 148.551 91.8322C146.919 90.1832 146.102 87.8872 146.102 84.9412V84.9432Z" fill="#0B0B0B"/>
<path d="M176.682 68.1395H183.26V70.3475H183.356C185.244 68.3955 187.629 67.4185 190.51 67.4185C192.749 67.4185 194.759 67.9795 196.535 69.0985C198.311 70.2195 199.695 71.7955 200.687 73.8275C201.679 75.8605 202.176 78.2045 202.176 80.8605C202.176 83.4225 201.679 85.7265 200.687 87.7745C199.695 89.8235 198.302 91.4235 196.51 92.5765C194.717 93.7275 192.685 94.3045 190.412 94.3045C188.972 94.3045 187.676 94.0805 186.523 93.6325C185.371 93.1855 184.411 92.5765 183.642 91.8085H183.546V104.387H176.68V68.1385L176.682 68.1395ZM195.31 80.8625C195.31 78.6865 194.765 76.9505 193.677 75.6535C192.589 74.3575 191.085 73.7095 189.164 73.7095C187.628 73.7095 186.308 74.2465 185.203 75.3175C184.099 76.3905 183.547 77.6945 183.547 79.2305V82.5425C183.547 83.5035 183.803 84.3985 184.315 85.2305C184.827 86.0635 185.539 86.7355 186.451 87.2475C187.364 87.7605 188.379 88.0165 189.5 88.0165C191.292 88.0165 192.709 87.3685 193.749 86.0725C194.789 84.7755 195.31 83.0405 195.31 80.8625Z" fill="#0B0B0B"/>
<path d="M206.783 68.1395H213.361V70.3475H213.457C215.346 68.3955 217.73 67.4185 220.611 67.4185C222.85 67.4185 224.86 67.9795 226.636 69.0985C228.412 70.2195 229.796 71.7955 230.788 73.8275C231.78 75.8605 232.277 78.2045 232.277 80.8605C232.277 83.4225 231.78 85.7265 230.788 87.7745C229.796 89.8235 228.403 91.4235 226.611 92.5765C224.818 93.7275 222.786 94.3045 220.513 94.3045C219.073 94.3045 217.777 94.0805 216.624 93.6325C215.472 93.1855 214.512 92.5765 213.743 91.8085H213.647V104.387H206.781V68.1385L206.783 68.1395ZM225.412 80.8625C225.412 78.6865 224.867 76.9505 223.779 75.6535C222.691 74.3575 221.187 73.7095 219.266 73.7095C217.73 73.7095 216.41 74.2465 215.305 75.3175C214.201 76.3905 213.649 77.6945 213.649 79.2305V82.5425C213.649 83.5035 213.905 84.3985 214.417 85.2305C214.929 86.0635 215.642 86.7355 216.554 87.2475C217.466 87.7605 218.482 88.0165 219.603 88.0165C221.395 88.0165 222.812 87.3685 223.852 86.0725C224.892 84.7755 225.413 83.0405 225.413 80.8625H225.412Z" fill="#0B0B0B"/>
<path d="M236.891 80.8624C236.891 78.2384 237.435 75.9104 238.524 73.8774C239.611 71.8454 241.14 70.2604 243.109 69.1244C245.078 67.9884 247.326 67.4194 249.854 67.4194C252.415 67.4194 254.679 67.9884 256.648 69.1244C258.617 70.2604 260.145 71.8454 261.233 73.8774C262.321 75.9104 262.866 78.2384 262.866 80.8624C262.866 83.4864 262.321 85.8164 261.233 87.8484C260.145 89.8814 258.617 91.4654 256.648 92.6014C254.679 93.7374 252.415 94.3054 249.854 94.3054C247.326 94.3054 245.078 93.7374 243.109 92.6014C241.14 91.4654 239.611 89.8814 238.524 87.8484C237.435 85.8164 236.891 83.4874 236.891 80.8624ZM255.999 80.8624C255.999 78.6234 255.463 76.8704 254.391 75.6054C253.319 74.3414 251.806 73.7094 249.854 73.7094C247.934 73.7094 246.437 74.3414 245.366 75.6054C244.293 76.8704 243.758 78.6234 243.758 80.8624C243.758 83.1014 244.293 84.8564 245.366 86.1204C246.437 87.3854 247.934 88.0164 249.854 88.0164C251.774 88.0164 253.279 87.3764 254.368 86.0954C255.456 84.8164 256 83.0714 256 80.8624H255.999Z" fill="#0B0B0B"/>
<path d="M268.142 68.1394H274.719V70.4924H274.815C275.903 69.4044 277.032 68.6194 278.2 68.1394C279.369 67.6594 280.705 67.4194 282.21 67.4194C284.418 67.4194 286.322 68.0674 287.923 69.3634C289.524 70.6594 290.644 72.4284 291.284 74.6694L284.85 76.7824C284.113 74.7014 282.593 73.6614 280.288 73.6614C278.559 73.6614 277.247 74.1654 276.351 75.1734C275.455 76.1814 275.006 77.5664 275.006 79.3264V93.5864H268.141V68.1404L268.142 68.1394Z" fill="#0B0B0B"/>
<path d="M307.802 74.2842V84.5112C307.802 85.3752 308.001 85.9992 308.402 86.3832C308.802 86.7682 309.466 86.9592 310.395 86.9592H316.205V93.5852H309.771C306.954 93.5852 304.777 92.9212 303.241 91.5932C301.705 90.2652 300.936 88.3682 300.936 85.9042V74.2852H294.695V68.1392H300.936V61.6582H307.802V68.1392H317.788V74.2852H307.802V74.2842Z" fill="#0B0B0B"/>
<path d="M117.438 120.139H124.015V122.348H124.111C125.999 120.396 128.384 119.418 131.265 119.418C133.505 119.418 135.515 119.979 137.291 121.099C139.068 122.22 140.452 123.796 141.444 125.828C142.436 127.861 142.931 130.205 142.931 132.861C142.931 135.423 142.435 137.727 141.444 139.775C140.451 141.824 139.059 143.424 137.267 144.577C135.474 145.728 133.442 146.305 131.17 146.305C129.73 146.305 128.432 146.081 127.28 145.633C126.128 145.186 125.168 144.577 124.399 143.809H124.303V156.388H117.438V120.139ZM136.065 132.862C136.065 130.686 135.521 128.95 134.433 127.653C133.345 126.357 131.84 125.709 129.92 125.709C128.384 125.709 127.064 126.245 125.959 127.317C124.855 128.39 124.303 129.694 124.303 131.23V134.542C124.303 135.503 124.559 136.398 125.071 137.23C125.583 138.063 126.295 138.735 127.207 139.247C128.12 139.76 129.135 140.016 130.256 140.016C132.048 140.016 133.465 139.368 134.506 138.072C135.546 136.775 136.065 135.04 136.065 132.862Z" fill="#0B0B0B"/>
<path d="M147.734 120.139H154.312V122.492H154.408C155.496 121.404 156.624 120.62 157.793 120.139C158.961 119.659 160.297 119.418 161.802 119.418C164.01 119.418 165.915 120.066 167.515 121.363C169.116 122.659 170.235 124.427 170.876 126.668L164.442 128.781C163.706 126.7 162.186 125.66 159.881 125.66C158.152 125.66 156.84 126.164 155.944 127.173C155.048 128.181 154.6 129.566 154.6 131.325V145.585H147.734V120.139Z" fill="#0B0B0B"/>
<path d="M173.805 132.862C173.805 130.238 174.349 127.91 175.437 125.877C176.525 123.845 178.054 122.261 180.022 121.124C181.99 119.988 184.239 119.419 186.768 119.419C189.328 119.419 191.593 119.988 193.562 121.124C195.531 122.261 197.058 123.845 198.146 125.877C199.234 127.91 199.779 130.238 199.779 132.862C199.779 135.486 199.234 137.816 198.146 139.848C197.058 141.881 195.531 143.465 193.562 144.601C191.593 145.737 189.328 146.305 186.768 146.305C184.239 146.305 181.991 145.737 180.022 144.601C178.053 143.465 176.524 141.881 175.437 139.848C174.349 137.816 173.805 135.487 173.805 132.862ZM192.914 132.862C192.914 130.623 192.377 128.87 191.305 127.605C190.233 126.341 188.721 125.709 186.769 125.709C184.849 125.709 183.352 126.342 182.28 127.605C181.207 128.87 180.672 130.623 180.672 132.862C180.672 135.101 181.208 136.856 182.28 138.12C183.352 139.385 184.849 140.016 186.769 140.016C188.689 140.016 190.194 139.376 191.282 138.095C192.37 136.816 192.915 135.071 192.915 132.862H192.914Z" fill="#0B0B0B"/>
<path d="M205.773 151.25L211.006 147.266C211.966 148.642 212.934 149.61 213.91 150.17C214.887 150.73 216.095 151.011 217.535 151.011C219.328 151.011 220.752 150.514 221.808 149.522C222.864 148.53 223.392 147.154 223.392 145.393V143.569H223.296C222.367 144.529 221.383 145.225 220.344 145.658C219.303 146.09 218.046 146.305 216.574 146.305C214.269 146.305 212.229 145.737 210.453 144.601C208.677 143.465 207.3 141.881 206.324 139.848C205.346 137.816 204.859 135.487 204.859 132.862C204.859 130.27 205.363 127.958 206.372 125.924C207.38 123.892 208.772 122.299 210.549 121.147C212.326 119.995 214.35 119.418 216.622 119.418C218.062 119.418 219.295 119.627 220.319 120.043C221.343 120.459 222.288 121.099 223.152 121.963H223.248V120.139H229.874V145.681C229.874 147.921 229.353 149.907 228.313 151.635C227.272 153.364 225.824 154.707 223.967 155.667C222.111 156.628 219.966 157.107 217.533 157.107C212.54 157.107 208.619 155.155 205.77 151.25H205.773ZM223.009 134.494V131.182C223.009 129.518 222.496 128.189 221.473 127.197C220.449 126.206 219.136 125.709 217.535 125.709C215.742 125.709 214.326 126.35 213.286 127.63C212.246 128.91 211.726 130.654 211.726 132.862C211.726 135.008 212.253 136.736 213.31 138.048C214.367 139.361 215.758 140.017 217.487 140.017C218.448 140.017 219.351 139.769 220.2 139.273C221.048 138.777 221.728 138.105 222.24 137.256C222.752 136.408 223.009 135.486 223.009 134.494Z" fill="#0B0B0B"/>
<path d="M237.079 120.139H243.656V122.492H243.752C244.84 121.404 245.969 120.62 247.137 120.139C248.306 119.659 249.642 119.418 251.147 119.418C253.355 119.418 255.259 120.066 256.86 121.363C258.461 122.659 259.581 124.427 260.221 126.668L253.787 128.781C253.05 126.7 251.53 125.66 249.225 125.66C247.496 125.66 246.184 126.164 245.288 127.173C244.392 128.181 243.943 129.566 243.943 131.325V145.585H237.078L237.079 120.139Z" fill="#0B0B0B"/>
<path d="M263.777 138.768C263.777 136.399 264.586 134.559 266.202 133.247C267.818 131.935 270.515 130.975 274.292 130.366C276.276 130.047 277.629 129.686 278.35 129.286C279.07 128.886 279.43 128.349 279.43 127.678C279.43 126.909 279.077 126.302 278.373 125.853C277.669 125.406 276.709 125.181 275.493 125.181C274.116 125.181 272.924 125.598 271.916 126.429C270.907 127.262 270.26 128.367 269.972 129.742L263.586 128.302C263.905 126.573 264.626 125.037 265.746 123.693C266.866 122.349 268.274 121.3 269.972 120.548C271.668 119.796 273.508 119.419 275.493 119.419C278.758 119.419 281.366 120.332 283.318 122.156C285.27 123.98 286.247 126.413 286.247 129.454V145.586H280.101V142.753H280.005C279.269 143.874 278.236 144.746 276.908 145.37C275.579 145.994 274.083 146.306 272.419 146.306C270.755 146.306 269.266 145.986 267.954 145.346C266.641 144.706 265.617 143.81 264.881 142.658C264.145 141.506 263.777 140.209 263.777 138.768ZM279.717 136.127V133.246H279.621C279.333 133.725 278.852 134.11 278.181 134.398C277.508 134.686 276.452 134.974 275.012 135.262C273.219 135.646 271.988 136.054 271.315 136.486C270.643 136.919 270.307 137.518 270.307 138.287C270.307 139.023 270.602 139.583 271.195 139.968C271.787 140.352 272.643 140.544 273.764 140.544C274.787 140.544 275.764 140.344 276.693 139.943C277.621 139.544 278.356 139 278.901 138.311C279.445 137.623 279.717 136.895 279.717 136.127Z" fill="#0B0B0B"/>
<path d="M292.531 120.139H298.58V122.348H298.677C299.221 121.484 299.916 120.82 300.765 120.355C301.613 119.891 302.549 119.659 303.574 119.659C305.591 119.659 307.207 120.603 308.424 122.492H308.52C309.8 120.603 311.561 119.659 313.801 119.659C315.657 119.659 317.162 120.315 318.315 121.628C319.468 122.941 320.044 124.652 320.044 126.766V145.586H313.706V127.966C313.706 127.23 313.514 126.669 313.13 126.285C312.746 125.901 312.201 125.709 311.497 125.709C310.825 125.709 310.289 125.925 309.889 126.357C309.489 126.789 309.289 127.374 309.289 128.109V145.586H303.287V127.966C303.287 127.262 303.102 126.71 302.735 126.31C302.367 125.91 301.846 125.709 301.174 125.709C300.47 125.709 299.909 125.925 299.493 126.357C299.077 126.789 298.869 127.374 298.869 128.109V145.586H292.532V120.14L292.531 120.139Z" fill="#0B0B0B"/>
<defs>
<linearGradient id="paint0_linear_9316_17235" x1="-0.884751" y1="91.709" x2="56.4632" y2="149.057" gradientUnits="userSpaceOnUse">
<stop stop-color="#F47D51"/>
<stop offset="0.96" stop-color="#DF72AC"/>
</linearGradient>
<linearGradient id="paint1_linear_9316_17235" x1="56.3315" y1="110.795" x2="75.5495" y2="130.013" gradientUnits="userSpaceOnUse">
<stop stop-color="#F15D4C"/>
<stop offset="1" stop-color="#C36CA1"/>
</linearGradient>
<linearGradient id="paint2_linear_9316_17235" x1="37.7555" y1="63.5448" x2="70.4585" y2="96.2478" gradientUnits="userSpaceOnUse">
<stop stop-color="#B46947"/>
<stop offset="0.896" stop-color="#AE5262"/>
</linearGradient>
<linearGradient id="paint3_linear_9316_17235" x1="70.1645" y1="0" x2="70.1645" y2="81.056" gradientUnits="userSpaceOnUse">
<stop stop-color="#FFD663"/>
<stop offset="1" stop-color="#F26C7D"/>
</linearGradient>
<linearGradient id="paint4_linear_9316_17235" x1="14.9743" y1="31.958" x2="42.2063" y2="59.19" gradientUnits="userSpaceOnUse">
<stop stop-color="#FFF171"/>
<stop offset="1" stop-color="#FAB382"/>
</linearGradient>
<linearGradient id="paint5_linear_9316_17235" x1="18.4982" y1="62.7148" x2="56.6822" y2="100.899" gradientUnits="userSpaceOnUse">
<stop stop-color="#D48A3D"/>
<stop offset="0.795" stop-color="#DB474E"/>
</linearGradient>
</defs>
</svg>
